<svg xmlns="http://www.w3.org/2000/svg" width="300" height="300" viewBox="0 0 300 300">
  <rect width="300" height="300" fill="#f0f8ff"/>
  <!-- 歯の形 -->
  <path d="M90 60 Q100 40 120 50 Q140 35 150 50 Q160 35 180 50 Q200 40 210 60 Q220 80 215 110 Q210 140 205 170 Q200 200 190 210 Q180 220 170 210 Q160 200 155 185 Q152 175 150 175 Q148 175 145 185 Q140 200 130 210 Q120 220 110 210 Q100 200 95 170 Q90 140 85 110 Q80 80 90 60Z" fill="white" stroke="#b89a5a" stroke-width="3"/>
  <!-- ハイライト -->
  <ellipse cx="130" cy="90" rx="15" ry="25" fill="rgba(255,255,255,0.6)"/>
  <text x="150" y="260" text-anchor="middle" font-size="16" fill="#b89a5a" font-family="sans-serif">日比谷公園前歯科医院</text>
</svg>
